<svg xmlns="http://www.w3.org/2000/svg" version="1.1" xmlns:xlink="http://www.w3.org/1999/xlink" xmlns:svgjs="http://svgjs.dev/svgjs" width="100%" height="100%" viewBox="0 0 1000 600"><rect width="1000" height="600" x="0" y="0" fill="#393d40"/><g><rect width="333.3333333333333" height="333.3333333333333" rx="13.333333333333334" ry="13.333333333333334" y="220.40812776776897" fill="#99bee5" transform="matrix(0.6307209775189649,0,0,0.6307209775189652,0,55.8638071067699)" x="198.18589782714844"/><path d="M298.0846189845321 462.0748000102552Q281.82304495832295 462.0748000102552 269.0047579590158 456.75072595185225Q256.18647095970863 451.4555870785493 249.32883209100476 442.9197074740445L249.32883209100476 442.9197074740445L251.41216541820594 414.56322607602857L256.18647095970863 414.56322607602857Q258.06725799120966 419.7715593940315 259.94804502271074 440.19980007464295L259.94804502271074 440.19980007464295Q265.35892463641375 446.6523463519466 273.8948042409186 450.50072597024877Q282.45961903052336 454.3780407736509 293.2813782579294 454.3780407736509L293.2813782579294 454.3780407736509Q308.0672578440377 454.3780407736509 318.4839244800436 446.56554079664653Q328.9005911160494 438.75304081964214 328.9005911160494 424.57480012063417L328.9005911160494 424.57480012063417Q328.9005911160494 415.1998001482289 323.8948040937466 408.63151313052526Q318.9179522565438 402.06322611282155 311.6262856113397 397.89655945841923Q304.3346189661356 393.7298928040169 292.03716529862874 388.31901319031385L292.03716529862874 388.31901319031385Q278.69804496752124 382.5030409852106 270.7698042501168 377.90234655430805Q262.8704987178124 373.33058730850547 257.3438783637093 365.7206336272012Q251.81725800960618 358.11067994589695 251.81725800960618 346.8548929419906L251.81725800960618 346.8548929419906Q251.81725800960618 329.783133732981 264.95383204501354 320.92896709237607Q278.0614708953209 312.0748004517711 300.37049860743343 312.0748004517711L300.37049860743343 312.0748004517711Q328.9005911160494 312.0748004517711 343.2813781107575 327.0632263335795L343.2813781107575 327.0632263335795L341.19804478355627 351.4555873728932L336.3948040569536 351.4555873728932Q333.7038318426521 343.72989295118884 332.45961888335137 328.94401336508054L332.45961888335137 328.94401336508054Q327.6563781567487 324.57480041497814 320.6829985476448 322.17318005167675Q313.70961893854087 319.7715596883754 305.1448041489361 319.7715596883754L305.1448041489361 319.7715596883754Q288.47813753132675 319.7715596883754 279.9422579268219 326.02155966997896Q271.40637832231715 332.27155965158244 271.40637832231715 344.1639207276891L271.40637832231715 344.1639207276891Q271.40637832231715 351.02155959639293 275.6887857171196 356.14308735909583Q279.9422579268219 361.23567993669866 286.3079986488255 364.88151325930073Q292.6448041857291 368.52734658190275 303.6980448939353 373.33058730850547L303.6980448939353 373.33058730850547Q318.0788318886433 379.58058729010895 326.93299852924827 384.8757261634119Q335.78716516985327 390.19980022181494 342.12397070675684 399.25651315812Q348.48971142876036 408.3132260944251 348.48971142876036 421.6523464255326L348.48971142876036 421.6523464255326Q348.48971142876036 433.94980009303947 341.9214244110567 443.1222537697446Q335.353137393353 452.29470744644976 323.8948040937466 457.1847537283525Q312.4364707941402 462.0748000102552 298.0846189845321 462.0748000102552L298.0846189845321 462.0748000102552ZM394.95961869938645 459.99146668305406L394.95961869938645 457.5030407644527Q402.0198038637904 455.6222537329516 412.6679519805964 453.7414667014506L412.6679519805964 453.7414667014506L412.6679519805964 321.8548930155766L374.12628542737474 321.8548930155766Q373.6922576508745 326.6581337421793 371.92721135977354 335.3097540870841Q370.16216506867255 343.961374431989 368.4839243328716 346.8548929419906L368.4839243328716 346.8548929419906L364.11471138276914 346.8548929419906L364.11471138276914 314.1581337789723L480.37628511463436 314.1581337789723L480.37628511463436 346.8548929419906L475.9781369794319 346.8548929419906Q474.32883142873095 343.961374431989 472.56378513762996 335.3097540870841Q470.76980366142897 326.6581337421793 470.36471107002876 321.8548930155766L470.36471107002876 321.8548930155766L431.8230445168071 321.8548930155766L431.8230445168071 453.7414667014506Q442.0371648571129 455.4197074372515 449.53137779801705 457.70558706015277L449.53137779801705 457.70558706015277L449.53137779801705 459.99146668305406L394.95961869938645 459.99146668305406Z " fill="#2b343e" transform="matrix(0.6307209775189649,0,0,0.6307209775189652,0,55.8638071067699)"/><path d="M651.6483072513583 425.27904816904066Q639.3757789351876 425.27904816904066 629.7018820596294 421.2609961936396Q620.0279851840712 417.2647814572352 614.8525595418427 410.82279595319534L614.8525595418427 410.82279595319534L616.4248407496083 389.42230173638507L620.0279851840712 389.42230173638507Q621.4474057188597 393.3530047557992 622.8668262536481 408.7700954875013L622.8668262536481 408.7700954875013Q626.9503899460394 413.6397997837755 633.3923754500793 416.54415257034265Q639.8561981931159 419.47034259590646 648.0233255778986 419.47034259590646L648.0233255778986 419.47034259590646Q659.1821547052355 419.47034259590646 667.0435607440637 413.5742880667853Q674.904966782892 407.678233537664 674.904966782892 396.9779864292589L674.904966782892 396.9779864292589Q674.904966782892 389.9027209943135 671.127124436455 384.9456677420523Q667.3711193290148 379.98861448979113 661.868135101835 376.8440520742598Q656.3651508746552 373.6994896587285 647.0843243010386 369.61592596633716L647.0843243010386 369.61592596633716Q637.017357123539 365.22664092799135 631.0339536384308 361.7545199275089Q625.0723873923193 358.30423616602314 620.901474743941 352.56104230987916Q616.7305620955627 346.81784845373517 616.7305620955627 338.3231624840013L616.7305620955627 338.3231624840013Q616.7305620955627 325.43919147592163 626.644668600085 318.75699634291755Q636.5369378656106 312.0748012099135 653.3734491321012 312.0748012099135L653.3734491321012 312.0748012099135Q674.904966782892 312.0748012099135 685.7580745642744 323.3864910102276L685.7580745642744 323.3864910102276L684.1857933565086 341.7952834844838L680.560811683049 341.7952834844838Q678.5299484563517 335.96474067235283 677.5909471794916 324.805911545016L677.5909471794916 324.805911545016Q673.9659655060319 321.5084884565075 668.7031909078163 319.6959976197776Q663.4404163096008 317.8835067830478 656.9765935665641 317.8835067830478L656.9765935665641 317.8835067830478Q644.3983439044389 317.8835067830478 637.956358400399 322.6003504063448Q631.5143728963592 327.3171940296417 631.5143728963592 336.29229925730397L631.5143728963592 336.29229925730397Q631.5143728963592 341.46772489953264 634.7462842678775 345.3329162019565Q637.956358400399 349.17627026538366 642.760550979683 351.92776237897357Q647.5429063199701 354.6792544925634 655.8847316167269 358.30423616602314L655.8847316167269 358.30423616602314Q666.7378393981093 363.02107978932014 673.4200345311133 367.0172945257245Q680.1022296641173 371.0353465011256 684.8845850044045 377.8704023071069Q689.6887775836884 384.7054581130881 689.6887775836884 394.77242529058765L689.6887775836884 394.77242529058765Q689.6887775836884 404.05325186420436 684.7317243314274 410.97565662617257Q679.7746710791662 417.89806138814083 671.127124436455 421.5885547785908Q662.4795777937439 425.27904816904066 651.6483072513583 425.27904816904066L651.6483072513583 425.27904816904066ZM783.2395094457449 418.9899233379781Q790.6204962266448 420.08178528781536 795.8177591078702 421.9816250805322L795.8177591078702 421.9816250805322L795.8177591078702 423.70676696127504L757.1440088446344 423.70676696127504L757.1440088446344 421.9816250805322Q763.8917156946286 419.7760639418609 769.0889785758541 418.9899233379781L769.0889785758541 418.9899233379781L769.0889785758541 367.4103648276659Q769.0889785758541 357.97667758107195 764.5249956255343 353.8276021716904Q759.9610126752145 349.6566895233121 752.4271652213374 349.6566895233121L752.4271652213374 349.6566895233121Q746.1380403902748 349.6566895233121 739.2156356283066 352.8667636558336Q732.2932308663384 356.0986750273519 726.7902466391586 362.0820785124601L726.7902466391586 362.0820785124601L726.7902466391586 418.9899233379781Q733.0793714702212 419.92892461483814 739.3684963012838 421.9816250805322L739.3684963012838 421.9816250805322L739.3684963012838 423.70676696127504L700.0614661071425 423.70676696127504L700.0614661071425 421.9816250805322Q706.3505909382051 419.92892461483814 712.6397157692677 418.9899233379781L712.6397157692677 418.9899233379781L712.6397157692677 350.7485514731493Q706.0448695922506 349.50382885033486 701.6337473149081 347.93154764256917L701.6337473149081 347.93154764256917L701.6337473149081 346.81784845373517L726.7902466391586 344.1537052961323L726.7902466391586 356.0986750273519Q732.2932308663384 350.7485514731493 740.2419858611536 347.3637794286538Q748.1689036169721 344.00084462315505 757.2968695176116 344.00084462315505L757.2968695176116 344.00084462315505Q768.9361179028768 344.00084462315505 776.0768950548124 349.9624108692665Q783.2395094457449 355.94581435437465 783.2395094457449 366.1656422048514L783.2395094457449 366.1656422048514L783.2395094457449 418.9899233379781ZM829.4689444018545 425.27904816904066Q816.8906947397293 425.27904816904066 810.2740113237155 419.47034259590646Q803.6791651466984 413.6397997837755 803.6791651466984 402.6338313294159L803.6791651466984 402.6338313294159Q803.6791651466984 390.53600092521907 812.3267117894095 385.09852841502953Q820.9742584321207 379.6828931438367 834.3386486981287 379.6828931438367L834.3386486981287 379.6828931438367L857.6171454686591 379.6828931438367L857.6171454686591 367.10464348171143Q857.6171454686591 358.1513754930459 852.2670219144566 353.8931138886806Q846.916898360254 349.6566895233121 837.1774897677055 349.6566895233121L837.1774897677055 349.6566895233121Q831.0412256096201 349.6566895233121 824.5118911495933 351.4691803600419Q817.9825566895665 353.259833957775 812.4795724623867 356.0986750273519L812.4795724623867 356.0986750273519L811.3877105125495 351.2289707310777Q817.6768353436121 347.93154764256917 825.6037530994306 345.9661961328621Q833.5525080942459 344.00084462315505 841.8943333910025 344.00084462315505L841.8943333910025 344.00084462315505Q855.8701663489194 344.00084462315505 863.9062702997217 350.0497598252535Q871.9205370115272 356.0986750273519 871.9205370115272 366.1656422048514L871.9205370115272 366.1656422048514L871.9205370115272 417.72336347616687Q877.423521238707 418.8370626650009 882.7736447929096 420.25648319978933L882.7736447929096 420.25648319978933L882.7736447929096 421.50120582260377L857.6171454686591 424.0124883072295L857.6171454686591 412.54793783393825Q851.1533227256225 419.47034259590646 843.8596849007097 422.3746953824736Q836.5442098368 425.27904816904066 829.4689444018545 425.27904816904066L829.4689444018545 425.27904816904066ZM834.491509371106 419.47034259590646Q840.9334948751457 419.47034259590646 847.6156900081498 415.4522906205054Q854.2978851411538 411.43423864510424 857.6171454686591 406.1059523298984L857.6171454686591 406.1059523298984L857.6171454686591 385.3387380439937L837.7889324596144 385.3387380439937Q827.7438025211117 385.3387380439937 822.6994003128635 389.81537203832653Q817.6768353436121 394.313843271656 817.6768353436121 402.4809706564387L817.6768353436121 402.4809706564387Q817.6768353436121 410.97565662617257 822.3063300109221 415.21208099154114Q826.9576619172288 419.47034259590646 834.491509371106 419.47034259590646L834.491509371106 419.47034259590646ZM884.8045080196068 462.07479587855636L884.8045080196068 460.0220954128623Q889.674212315881 458.60267487807386 897.5356183547094 457.2050915822822L897.5356183547094 457.2050915822822L897.5356183547094 350.7485514731493Q890.7879115047151 349.50382885033486 886.5296499003498 348.0844083155464L886.5296499003498 348.0844083155464L886.5296499003498 346.81784845373517L911.6861492246003 344.1537052961323L911.6861492246003 355.6182557694235Q917.6695527097085 348.8705489194292 924.8321671006408 346.42477815179376Q931.9729442525766 344.00084462315505 938.4149297566164 344.00084462315505L938.4149297566164 344.00084462315505Q955.4043016960841 344.00084462315505 964.7506399866911 353.7402532157034Q974.1188155162947 363.47966180825176 974.1188155162947 382.6745948863908L974.1188155162947 382.6745948863908Q974.1188155162947 404.5336711221327 964.4449186407367 414.90635964558675Q954.7710217651786 425.27904816904066 937.0173464608247 425.27904816904066L937.0173464608247 425.27904816904066Q928.9812425100224 425.27904816904066 922.1461867040412 422.4402070994638Q915.3111308980599 419.6232032688837 911.6861492246003 413.6397997837755L911.6861492246003 413.6397997837755L911.6861492246003 457.2050915822822Q917.9752740556628 458.14409285914223 924.2643988867254 460.17495608583954L924.2643988867254 460.17495608583954L924.2643988867254 462.07479587855636L884.8045080196068 462.07479587855636ZM935.1175066681078 419.7760639418609Q948.1761755881614 419.7760639418609 953.9848811612958 409.86195743733856Q959.8154239734266 399.969688171813 959.8154239734266 383.46073549027363L959.8154239734266 383.46073549027363Q959.8154239734266 366.47136355080585 954.0722301172826 358.06402653705896Q948.3290362611388 349.6566895233121 935.1175066681078 349.6566895233121L935.1175066681078 349.6566895233121Q928.1951019061396 349.6566895233121 922.1461867040412 353.259833957775Q916.0972715019427 356.8848156312347 911.6861492246003 362.69352120436895L911.6861492246003 362.69352120436895L911.6861492246003 397.13084710223615Q911.6861492246003 403.26711126032154 914.4376413381901 408.4643741415469Q917.18913345178 413.6397997837755 922.5392570059826 416.71885048231655Q927.8893805601851 419.7760639418609 935.1175066681078 419.7760639418609L935.1175066681078 419.7760639418609ZM998.3363135636853 423.70676696127504L998.3363135636853 421.82876440755496Q1003.6645998788911 420.4093438727665 1011.7007038296933 418.9899233379781L1011.7007038296933 418.9899233379781L1011.7007038296933 319.4557879908134L982.6135014860287 319.4557879908134Q982.2859429010775 323.08076966427313 980.953871322276 329.61010412429994Q979.6217997434746 336.13943858432674 978.3552398816634 338.3231624840013L978.3552398816634 338.3231624840013L975.0578167931549 338.3231624840013L975.0578167931549 313.6470824176792L1062.7998430820771 313.6470824176792L1062.7998430820771 338.3231624840013L1059.4805827545717 338.3231624840013Q1058.2358601317574 336.13943858432674 1056.9037885529558 329.61010412429994Q1055.5498797351577 323.08076966427313 1055.2441583892032 319.4557879908134L1055.2441583892032 319.4557879908134L1026.1569560455387 319.4557879908134L1026.1569560455387 418.9899233379781Q1033.8655014113897 420.25648319978933 1039.5213463115467 421.9816250805322L1039.5213463115467 421.9816250805322L1039.5213463115467 423.70676696127504L998.3363135636853 423.70676696127504ZM1066.0972661705855 423.70676696127504L1066.0972661705855 421.9816250805322Q1071.447389724788 419.92892461483814 1078.6755158327107 418.9899233379781L1078.6755158327107 418.9899233379781L1078.6755158327107 350.7485514731493Q1071.7531110707425 349.50382885033486 1067.8224080513285 347.93154764256917L1067.8224080513285 347.93154764256917L1067.8224080513285 346.81784845373517L1091.253765494836 344.1537052961323L1092.4984881176506 357.67095623511756L1093.131768048556 357.67095623511756Q1095.6430505331818 352.0151113349605 1100.9931740873844 347.9970593595594Q1106.343297641587 344.00084462315505 1112.6324224726495 344.00084462315505L1112.6324224726495 344.00084462315505Q1120.3409678385005 344.00084462315505 1125.6910913927031 347.45112838464075L1125.6910913927031 347.45112838464075L1123.0051109961037 354.83211516554064Q1119.0744079766894 351.8622506619833 1114.2047036804154 351.8622506619833L1114.2047036804154 351.8622506619833Q1107.7627181763753 351.8622506619833 1102.2597339491956 356.1860239833389Q1096.7567497220157 360.5097973046944 1092.8260467026018 367.10464348171143L1092.8260467026018 367.10464348171143L1092.8260467026018 418.9899233379781Q1099.7484514645698 420.08178528781536 1105.404296364727 421.9816250805322L1105.404296364727 421.9816250805322L1105.404296364727 423.70676696127504L1066.0972661705855 423.70676696127504ZM1158.8618574287593 425.27904816904066Q1146.2836077666338 425.27904816904066 1139.6669243506203 419.47034259590646Q1133.0720781736031 413.6397997837755 1133.0720781736031 402.6338313294159L1133.0720781736031 402.6338313294159Q1133.0720781736031 390.53600092521907 1141.719624816314 385.09852841502953Q1150.3671714590255 379.6828931438367 1163.7315617250333 379.6828931438367L1163.7315617250333 379.6828931438367L1187.0100584955637 379.6828931438367L1187.0100584955637 367.10464348171143Q1187.0100584955637 358.1513754930459 1181.6599349413614 353.8931138886806Q1176.3098113871586 349.6566895233121 1166.5704027946103 349.6566895233121L1166.5704027946103 349.6566895233121Q1160.434138636525 349.6566895233121 1153.9048041764981 351.4691803600419Q1147.3754697164713 353.259833957775 1141.8724854892914 356.0986750273519L1141.8724854892914 356.0986750273519L1140.7806235394542 351.2289707310777Q1147.0697483705167 347.93154764256917 1154.9966661263354 345.9661961328621Q1162.9454211211505 344.00084462315505 1171.2872464179072 344.00084462315505L1171.2872464179072 344.00084462315505Q1185.2630793758242 344.00084462315505 1193.2991833266265 350.0497598252535Q1201.3134500384317 356.0986750273519 1201.3134500384317 366.1656422048514L1201.3134500384317 366.1656422048514L1201.3134500384317 417.72336347616687Q1206.8164342656116 418.8370626650009 1212.1665578198144 420.25648319978933L1212.1665578198144 420.25648319978933L1212.1665578198144 421.50120582260377L1187.0100584955637 424.0124883072295L1187.0100584955637 412.54793783393825Q1180.546235752527 419.47034259590646 1173.2525979276143 422.3746953824736Q1165.9371228637046 425.27904816904066 1158.8618574287593 425.27904816904066L1158.8618574287593 425.27904816904066ZM1163.8844223980107 419.47034259590646Q1170.3264079020505 419.47034259590646 1177.0086030350544 415.4522906205054Q1183.6907981680586 411.43423864510424 1187.0100584955637 406.1059523298984L1187.0100584955637 406.1059523298984L1187.0100584955637 385.3387380439937L1167.1818454865193 385.3387380439937Q1157.1367155480164 385.3387380439937 1152.0923133397682 389.81537203832653Q1147.0697483705167 394.313843271656 1147.0697483705167 402.4809706564387L1147.0697483705167 402.4809706564387Q1147.0697483705167 410.97565662617257 1151.6992430378268 415.21208099154114Q1156.3505749441333 419.47034259590646 1163.8844223980107 419.47034259590646L1163.8844223980107 419.47034259590646ZM1258.3741555369272 425.27904816904066Q1245.9706037867757 425.27904816904066 1236.7552889301494 420.25648319978933Q1227.5618113125195 415.21208099154114 1222.6047580602583 406.01860337391145Q1217.6695420469941 396.8251257562817 1217.6695420469941 384.7054581130881L1217.6695420469941 384.7054581130881Q1217.6695420469941 365.5323622739458 1228.893882891321 354.7666034485504Q1240.140060974645 344.00084462315505 1259.007435467833 344.00084462315505L1259.007435467833 344.00084462315505Q1275.9968074073006 344.00084462315505 1287.155636534637 353.434531869749L1287.155636534637 353.434531869749L1286.0637745848 370.5549272431972L1282.9192121692688 370.5549272431972Q1281.9583736534119 368.1965054315487 1281.3469309615032 363.5670107642388Q1280.7136510305975 358.93751609692873 1280.5607903576204 355.15967375049183L1280.5607903576204 355.15967375049183Q1272.2189650608636 349.6566895233121 1262.938138487247 349.6566895233121L1262.938138487247 349.6566895233121Q1248.001467013473 349.6566895233121 1239.9872003016678 358.93751609692873Q1231.9729335898621 368.1965054315487 1231.9729335898621 385.6662966289449L1231.9729335898621 385.6662966289449Q1231.9729335898621 394.6195646176104 1235.1830077223838 402.3936217004517Q1238.414919093902 410.18951602228975 1245.184463182893 415.059220318564Q1251.9321700328871 419.92892461483814 1262.1519978833642 419.92892461483814L1262.1519978833642 419.92892461483814Q1268.4411227144267 419.92892461483814 1274.9704571744535 417.8107124321538Q1281.4997916344803 415.69250024946956 1286.2166352577772 412.22037924898706L1286.2166352577772 412.22037924898706L1287.6360557925657 416.32578018037515Q1282.9192121692688 420.25648319978933 1275.363527476395 422.767765684415Q1267.807842783521 425.27904816904066 1258.3741555369272 425.27904816904066L1258.3741555369272 425.27904816904066ZM1374.8976628235596 418.9899233379781Q1380.7063683966937 419.7760639418609 1387.301214573711 421.9816250805322L1387.301214573711 421.9816250805322L1387.301214573711 423.70676696127504L1364.83069564606 423.70676696127504L1332.7517915598412 385.49159871697094L1322.5319637093646 395.7114265674477L1322.5319637093646 418.9899233379781Q1329.3015077983557 420.08178528781536 1335.1102133714896 421.9816250805322L1335.1102133714896 421.9816250805322L1335.1102133714896 423.70676696127504L1295.8031831773485 423.70676696127504L1295.8031831773485 421.9816250805322Q1302.7255879393167 419.6232032688837 1308.3814328394737 418.9899233379781L1308.3814328394737 418.9899233379781L1308.3814328394737 319.15006664485895Q1301.7865866624566 317.8835067830478 1297.3754643851141 316.31122557528215L1297.3754643851141 316.31122557528215L1297.3754643851141 315.2193636254449L1322.5319637093646 312.55522046784193L1322.5319637093646 387.39143850968776L1356.4888703493032 352.95411261182056Q1357.2750109531862 352.4736933538922 1357.2750109531862 352.0151113349605L1357.2750109531862 352.0151113349605Q1357.6025695381375 351.38183140405494 1357.6025695381375 350.7485514731493L1357.6025695381375 350.7485514731493Q1356.0302883303718 350.1152715422437 1353.497168606749 349.50382885033486L1353.497168606749 349.50382885033486Q1352.2524459839349 349.02340959240644 1350.0468848452635 348.3246179445106Q1347.8413237065922 347.603989057618 1346.749461756755 347.14540703868636L1346.749461756755 347.14540703868636L1346.749461756755 345.3984279189467L1380.0730884657883 345.3984279189467L1380.0730884657883 347.14540703868636Q1378.3479465850453 348.0844083155464 1372.0588217539826 349.80955019628925L1372.0588217539826 349.80955019628925Q1367.1891174577086 351.0761100581005 1366.4029768538255 351.53469207703216L1366.4029768538255 351.53469207703216L1340.6131975986698 377.47733200516547L1374.8976628235596 418.9899233379781Z " fill="#2680e0" transform="matrix(0.6307209775189649,0,0,0.6307209775189652,0,55.8638071067699)"/></g></svg>